<svg xmlns="http://www.w3.org/2000/svg" xmlns:xlink="http://www.w3.org/1999/xlink" width="28" height="28" viewBox="0 0 28 28">
    <defs>
        <filter id="a" width="170%" height="170%" x="-35%" y="-25%" filterUnits="objectBoundingBox">
            <feOffset dy="2" in="SourceAlpha" result="shadowOffsetOuter1"/>
            <feGaussianBlur in="shadowOffsetOuter1" result="shadowBlurOuter1" stdDeviation="2"/>
            <feColorMatrix in="shadowBlurOuter1" result="shadowMatrixOuter1" values="0 0 0 0 0 0 0 0 0 0 0 0 0 0 0 0 0 0 0.5 0"/>
            <feMerge>
                <feMergeNode in="shadowMatrixOuter1"/>
                <feMergeNode in="SourceGraphic"/>
            </feMerge>
        </filter>
        <path id="b" d="M20 10v10H0V0h20z"/>
    </defs>
    <g fill="none" fill-rule="evenodd" filter="url(#a)" transform="translate(4 2)">
        <mask id="c" fill="#fff">
            <use xlink:href="#b"/>
        </mask>
        <path fill="#BDEBE5" d="M10 20c5.523 0 10-4.477 10-10S15.523 0 10 0 0 4.477 0 10s4.477 10 10 10" mask="url(#c)"/>
        <path fill="#231F20" d="M12.4 11.9c-.578.578-1.268.867-2.071.867-.803 0-1.49-.289-2.06-.867-.571-.578-.856-1.264-.856-2.06 0-.135.015-.323.045-.563H5.5v3.872c0 .421.146.781.439 1.081.292.3.649.45 1.069.45h6.664c.42 0 .777-.15 1.069-.45.293-.3.439-.66.439-1.081V9.277h-1.981c.045.18.068.368.068.563 0 .796-.289 1.482-.867 2.06zM7.008 5c-.42 0-.777.146-1.069.439A1.453 1.453 0 0 0 5.5 6.508v1.644h2.454c.555-.826 1.35-1.239 2.386-1.239 1.006 0 1.801.413 2.386 1.239h2.454V6.508c0-.42-.146-.777-.439-1.069A1.453 1.453 0 0 0 13.672 5H7.008zm7.114 2.139h-.81a.245.245 0 0 1-.192-.091.274.274 0 0 1-.078-.18v-.81c0-.18.09-.27.27-.27h.81c.18 0 .27.09.27.27v.81c0 .18-.09.271-.27.271zm-2.51 1.418a1.755 1.755 0 0 0-1.272-.518c-.495 0-.919.173-1.272.518a1.709 1.709 0 0 0-.529 1.272c0 .503.176.93.529 1.283.353.353.777.529 1.272.529s.919-.176 1.272-.529c.353-.353.529-.777.529-1.272 0-.51-.176-.938-.529-1.283z" mask="url(#c)"/>
    </g>
</svg>
