<svg xmlns="http://www.w3.org/2000/svg" xmlns:xlink="http://www.w3.org/1999/xlink" width="28" height="28" viewBox="0 0 28 28">
    <defs>
        <filter id="a" width="170%" height="170%" x="-35%" y="-25%" filterUnits="objectBoundingBox">
            <feOffset dy="2" in="SourceAlpha" result="shadowOffsetOuter1"/>
            <feGaussianBlur in="shadowOffsetOuter1" result="shadowBlurOuter1" stdDeviation="2"/>
            <feColorMatrix in="shadowBlurOuter1" result="shadowMatrixOuter1" values="0 0 0 0 0 0 0 0 0 0 0 0 0 0 0 0 0 0 0.5 0"/>
            <feMerge>
                <feMergeNode in="shadowMatrixOuter1"/>
                <feMergeNode in="SourceGraphic"/>
            </feMerge>
        </filter>
        <path id="b" d="M10 20H0V0h20v20z"/>
    </defs>
    <g fill="none" fill-rule="evenodd" filter="url(#a)" transform="translate(4 2)">
        <mask id="c" fill="#fff">
            <use xlink:href="#b"/>
        </mask>
        <path fill="#BDEBE5" d="M10 20c5.523 0 10-4.477 10-10S15.523 0 10 0 0 4.477 0 10s4.477 10 10 10" mask="url(#c)"/>
        <path fill="#231F20" d="M13.496 13.296c-.583.383-1.157.574-1.723.574-.333 0-.616-.083-.85-.249a.88.88 0 0 1-.398-.45c-.067-.15-.1-.574-.1-1.273V8.951h2.696V7.153h-2.696V4.257H8.802a4.401 4.401 0 0 1-.375 1.448c-.2.4-.458.733-.774.999a3.462 3.462 0 0 1-1.15.624v1.623h1.25v4.02c0 .55.058.949.175 1.199.083.266.274.532.574.799.233.216.574.408 1.024.574.433.133.89.2 1.373.2.45 0 .874-.05 1.274-.15a5.46 5.46 0 0 0 1.323-.499v-1.798z" mask="url(#c)"/>
    </g>
</svg>
