<svg xmlns="http://www.w3.org/2000/svg" width="28" height="28" viewBox="0 0 28 28">
    <defs>
        <filter id="a" width="170%" height="170%" x="-35%" y="-25%" filterUnits="objectBoundingBox">
            <feOffset dy="2" in="SourceAlpha" result="shadowOffsetOuter1"/>
            <feGaussianBlur in="shadowOffsetOuter1" result="shadowBlurOuter1" stdDeviation="2"/>
            <feColorMatrix in="shadowBlurOuter1" result="shadowMatrixOuter1" values="0 0 0 0 0 0 0 0 0 0 0 0 0 0 0 0 0 0 0.5 0"/>
            <feMerge>
                <feMergeNode in="shadowMatrixOuter1"/>
                <feMergeNode in="SourceGraphic"/>
            </feMerge>
        </filter>
    </defs>
    <g fill="none" fill-rule="evenodd" filter="url(#a)" transform="translate(4 2)">
        <path fill="#BDEBE5" d="M10 20c5.523 0 10-4.477 10-10S15.523 0 10 0 0 4.477 0 10s4.477 10 10 10"/>
        <path fill="#231F20" d="M16.175 6.164a5.293 5.293 0 0 1-1.461.393 2.478 2.478 0 0 0 1.11-1.39c-.497.3-1.031.505-1.602.618a2.457 2.457 0 0 0-1.855-.8 2.45 2.45 0 0 0-1.798.743 2.45 2.45 0 0 0-.745 1.8c0 .186.019.378.057.575a7.033 7.033 0 0 1-2.909-.787 7.306 7.306 0 0 1-2.304-1.869 2.434 2.434 0 0 0-.351 1.265c0 .45.103.857.309 1.222.206.366.482.665.829.9a2.556 2.556 0 0 1-1.138-.324v.028a2.34 2.34 0 0 0 .576 1.616c.393.46.88.75 1.461.871a2.609 2.609 0 0 1-1.138.042c.169.506.468.923.899 1.251.431.328.923.496 1.475.506a4.957 4.957 0 0 1-3.147 1.082c-.225 0-.431-.01-.618-.029a7.048 7.048 0 0 0 3.892 1.138 7.027 7.027 0 0 0 2.529-.42c.787-.29 1.461-.67 2.023-1.139a7.146 7.146 0 0 0 1.447-1.644 7.441 7.441 0 0 0 .899-1.953 7.228 7.228 0 0 0 .296-2.037c0-.14-.005-.248-.015-.323a5.091 5.091 0 0 0 1.265-1.307l.014-.028z"/>
    </g>
</svg>
